<?xml version="1.0" encoding="UTF-8" standalone="no"?>
<svg
   xmlns:dc="http://purl.org/dc/elements/1.1/"
   xmlns:cc="http://creativecommons.org/ns#"
   xmlns:rdf="http://www.w3.org/1999/02/22-rdf-syntax-ns#"
   xmlns:svg="http://www.w3.org/2000/svg"
   xmlns="http://www.w3.org/2000/svg"
   xmlns:sodipodi="http://sodipodi.sourceforge.net/DTD/sodipodi-0.dtd"
   xmlns:inkscape="http://www.inkscape.org/namespaces/inkscape"
   width="210mm"
   height="297mm"
   viewBox="0 0 210 297"
   version="1.1"
   id="svg8"
   inkscape:version="1.0.2-2 (e86c870879, 2021-01-15)"
   sodipodi:docname="desenho3.svg"
   inkscape:export-filename="C:\Users\Júlia Queiróz\Documents\Linguagens de Marcação\Desenhos\desenho3.png"
   inkscape:export-xdpi="95.955559"
   inkscape:export-ydpi="95.955559">
  <defs
     id="defs2">
    <inkscape:perspective
       sodipodi:type="inkscape:persp3d"
       inkscape:vp_x="0 : 148.5 : 1"
       inkscape:vp_y="0 : 1000 : 0"
       inkscape:vp_z="210 : 148.5 : 1"
       inkscape:persp3d-origin="105 : 99 : 1"
       id="perspective853" />
  </defs>
  <sodipodi:namedview
     id="base"
     pagecolor="#ffffff"
     bordercolor="#666666"
     borderopacity="1.0"
     inkscape:pageopacity="0.0"
     inkscape:pageshadow="2"
     inkscape:zoom="0.7"
     inkscape:cx="6.7456109"
     inkscape:cy="598.98371"
     inkscape:document-units="mm"
     inkscape:current-layer="layer1"
     inkscape:document-rotation="0"
     showgrid="false"
     inkscape:window-width="1920"
     inkscape:window-height="1001"
     inkscape:window-x="-9"
     inkscape:window-y="-9"
     inkscape:window-maximized="1" />
  <metadata
     id="metadata5">
    <rdf:RDF>
      <cc:Work
         rdf:about="">
        <dc:format>image/svg+xml</dc:format>
        <dc:type
           rdf:resource="http://purl.org/dc/dcmitype/StillImage" />
        <dc:title />
      </cc:Work>
    </rdf:RDF>
  </metadata>
  <g
     inkscape:label="Layer 1"
     inkscape:groupmode="layer"
     id="layer1">
    <rect
       style="opacity:1;fill:#fff402;fill-opacity:1;stroke:#000000;stroke-width:1.19571;stroke-miterlimit:4;stroke-dasharray:none"
       id="rect871"
       width="72.571426"
       height="193.64484"
       x="70.681541"
       y="84.167664"
       ry="36.026943"
       rx="36.026943" />
    <rect
       style="opacity:1;fill:#000000;fill-opacity:1;stroke:#000000;stroke-width:5.5;stroke-miterlimit:4;stroke-dasharray:none"
       id="rect886"
       width="68.413696"
       height="1.1339285"
       x="72.571426"
       y="131.9137" />
    <ellipse
       style="opacity:1;fill:#ffffff;fill-opacity:1;stroke:#000000;stroke-width:5.5;stroke-miterlimit:4;stroke-dasharray:none"
       id="path873"
       cx="107.15624"
       cy="132.85863"
       rx="19.465773"
       ry="19.087799" />
    <ellipse
       style="opacity:1;fill:#000000;fill-opacity:1;stroke:#000000;stroke-width:5.5;stroke-miterlimit:4;stroke-dasharray:none"
       id="path875"
       cx="106.58928"
       cy="132.29166"
       rx="4.9136906"
       ry="5.2916665" />
    <rect
       style="opacity:1;fill:#000000;fill-opacity:1;stroke:#000000;stroke-width:5.5;stroke-miterlimit:4;stroke-dasharray:none"
       id="rect879"
       width="0"
       height="0"
       x="59.720222"
       y="109.6131" />
    <path
       style="fill:none;stroke:#000000;stroke-width:0.264583px;stroke-linecap:butt;stroke-linejoin:miter;stroke-opacity:1"
       d="m 88.824402,169.33333 c 19.754008,-14.44756 35.819388,0.29483 35.907738,0.37798"
       id="path890"
       sodipodi:nodetypes="cc" />
    <circle
       style="opacity:1;fill:#000000;fill-opacity:1;stroke:#000000;stroke-width:5.5;stroke-miterlimit:4;stroke-dasharray:none"
       id="path908"
       sodipodi:type="arc"
       sodipodi:cx="106.02232"
       sodipodi:cy="240.39285"
       sodipodi:rx="31.938988"
       sodipodi:ry="31.75"
       sodipodi:start="0"
       sodipodi:end="3.1286249"
       sodipodi:open="true"
       sodipodi:arc-type="arc"
       d="m 137.96131,240.39285 a 31.938988,31.75 0 0 1 -31.7319,31.74934 31.938988,31.75 0 0 1 -32.143389,-31.33762" />
    <circle
       style="opacity:1;fill:#02a2ee;fill-opacity:1;stroke:#02a2ee;stroke-width:5.41694;stroke-miterlimit:4;stroke-dasharray:none;stroke-opacity:1"
       id="path910"
       sodipodi:type="arc"
       sodipodi:cx="106.80534"
       sodipodi:cy="239.55576"
       sodipodi:rx="33.560894"
       sodipodi:ry="35.195656"
       sodipodi:start="0"
       sodipodi:end="3.1286249"
       sodipodi:open="true"
       sodipodi:arc-type="arc"
       d="M 140.36624,239.55576 A 33.560894,35.195656 0 0 1 107.02295,274.75067 33.560894,35.195656 0 0 1 73.247271,240.01215" />
    <rect
       style="opacity:1;fill:#02a2ee;fill-opacity:1;stroke:#02a2ee;stroke-width:3.66927;stroke-miterlimit:4;stroke-dasharray:none;stroke-opacity:1"
       id="rect914"
       width="68.120186"
       height="12.741442"
       x="72.864929"
       y="227.27344" />
    <rect
       style="opacity:1;fill:#05a1eb;fill-opacity:1;stroke:#02a2ee;stroke-width:0;stroke-miterlimit:4;stroke-dasharray:none;stroke-opacity:1"
       id="rect916"
       width="43.845234"
       height="37.797619"
       x="85.04464"
       y="193.52382" />
    <path
       style="fill:none;stroke:#000000;stroke-width:1.28041px;stroke-linecap:butt;stroke-linejoin:miter;stroke-opacity:1"
       d="m 128.69045,193.44884 c 0.45672,38.97575 0.7612,34.5118 0.7612,39.14771 0,4.63596 1.3701,9.61546 1.3701,9.61546 0.82177,1.67046 1.97892,3.71994 2.43577,4.97904 1.98412,3.10216 2.51782,2.93247 3.34917,3.43415 l 5.78495,0.51504"
       id="path922"
       sodipodi:nodetypes="cscccc" />
    <path
       style="fill:none;stroke:#000000;stroke-width:1.28041px;stroke-linecap:butt;stroke-linejoin:miter;stroke-opacity:1"
       d="m 85.044641,193.52382 c -0.45672,38.97575 -0.7612,34.5118 -0.7612,39.14771 0,4.63596 -1.3701,9.61546 -1.3701,9.61546 -0.82177,1.67046 -1.97892,3.71994 -2.43577,4.97904 -1.98412,3.10216 -2.51782,2.93247 -3.34917,3.43415 l -5.78495,0.51504"
       id="path924"
       sodipodi:nodetypes="cscccc" />
    <rect
       style="opacity:1;fill:#000000;fill-opacity:1;stroke:#000000;stroke-width:0;stroke-miterlimit:4;stroke-dasharray:none;stroke-opacity:1"
       id="rect926"
       width="43.845234"
       height="1.2254187"
       x="84.845215"
       y="193.44884" />
    <rect
       style="opacity:1;fill:#000000;fill-opacity:1;stroke:#000000;stroke-width:0;stroke-miterlimit:4;stroke-dasharray:none;stroke-opacity:1"
       id="rect930"
       width="13.49711"
       height="0.93544334"
       x="71.062897"
       y="225.03891" />
    <rect
       style="opacity:1;fill:#000000;fill-opacity:1;stroke:#000000;stroke-width:0;stroke-miterlimit:4;stroke-dasharray:none;stroke-opacity:1"
       id="rect932"
       width="13.49711"
       height="0.93544334"
       x="129.8622"
       y="225.03891" />
    <path
       style="fill:#fff402;fill-opacity:1;stroke:#000000;stroke-width:0.691257px;stroke-linecap:butt;stroke-linejoin:miter;stroke-opacity:1"
       d="m 143.01639,214.24066 c 8.57238,9.19853 8.80098,9.46503 8.80098,9.46503 l 2.40028,4.66594 0.80003,2.3996 -0.34284,2.93285 -1.37162,2.66618 -3.54318,2.9329 -3.77186,1.73284 -2.85751,0.93332 0.22864,-4.93255 2.62887,-2.26622 1.82871,-2.53301 0.34291,-2.13279 -1.02868,-2.13309 -2.05735,-1.3331 -1.71446,-1.59965 z"
       id="path934" />
    <path
       style="fill:#fff402;fill-opacity:1;stroke:#000000;stroke-width:0.6737px;stroke-linecap:butt;stroke-linejoin:miter;stroke-opacity:1"
       d="m 70.80393,215.1761 c -8.142459,9.19853 -8.359594,9.46503 -8.359594,9.46503 l -2.279901,4.66594 -0.759907,2.3996 0.325646,2.93285 1.302831,2.66618 3.365481,2.9329 3.582694,1.73284 2.714201,0.93332 -0.217174,-4.93255 -2.497027,-2.26622 -1.736996,-2.53301 -0.325712,-2.13279 0.977089,-2.13309 1.954171,-1.3331 1.628475,-1.59965 z"
       id="path936" />
    <path
       id="rect944"
       style="opacity:1;fill:#02a2ee;fill-opacity:1;stroke:#000000;stroke-width:0.931;stroke-miterlimit:4;stroke-dasharray:none;stroke-opacity:1"
       inkscape:transform-center-x="-2.3981708"
       inkscape:transform-center-y="2.1000008"
       d="m 70.836411,189.06763 -0.124659,-6.57315 24.688616,16.33873 -6.017454,4.77776 z"
       sodipodi:nodetypes="ccccc" />
    <path
       id="path887"
       style="opacity:1;fill:#02a2ee;fill-opacity:1;stroke:#000000;stroke-width:0.931;stroke-miterlimit:4;stroke-dasharray:none;stroke-opacity:1"
       inkscape:transform-center-x="2.3981755"
       inkscape:transform-center-y="2.1000008"
       d="m 143.11573,189.06762 0.12466,-6.57314 -24.68862,16.33873 6.01746,4.77776 z"
       sodipodi:nodetypes="ccccc" />
    <ellipse
       style="opacity:1;fill:#000000;fill-opacity:1;stroke:#000000;stroke-width:0.515076;stroke-miterlimit:4;stroke-dasharray:none;stroke-opacity:1"
       id="ellipse993"
       cx="124.5437"
       cy="198.95506"
       rx="1.938486"
       ry="2.0774853" />
    <path
       style="fill:none;stroke:#000000;stroke-width:0.928206px;stroke-linecap:butt;stroke-linejoin:miter;stroke-opacity:1"
       d="m 81.475879,267.75031 -0.07988,5.76283 0.399264,3.61255 0.15972,3.87057 0.638823,2.0643 -4.711313,1.63425 -2.39558,1.89226 -0.399267,3.18246 1.3575,1.97833 2.555287,0.86009 3.034403,0.25802 4.471754,-0.86009 2.874703,-0.94617 2.794844,-1.4622 3.114252,-2.49437 1.51721,-1.37623 0.15972,-0.34405 -2.95455,-0.51607 -1.756765,-0.25802 -2.315724,-0.34406 -2.794846,-0.51607 -2.156027,-0.68811 -2.635147,-0.17201 14.692909,2.58038 0.47912,-1.80626 0.15972,-1.63425 0.15972,-3.35449 0.0799,-1.03218 0.0799,-0.94613 -2.39559,-0.68811 -3.832927,-1.4622 -3.273967,-2.15028 -4.471754,-2.92444 z"
       id="path997" />
    <path
       style="fill:#02a2ee;fill-opacity:1;stroke:#000000;stroke-width:0.928206px;stroke-linecap:butt;stroke-linejoin:miter;stroke-opacity:1"
       d="m 81.475879,267.75031 -0.07988,5.76283 0.399264,3.61255 0.15972,3.87057 0.638823,2.0643 -4.711313,1.63425 -2.39558,1.89226 -0.399267,3.18246 1.3575,1.97833 2.555287,0.86009 3.034403,0.25802 4.471754,-0.86009 2.874703,-0.94617 2.794844,-1.4622 3.114252,-2.49437 1.51721,-1.37623 0.15972,-0.34405 -2.95455,-0.51607 -1.756765,-0.25802 -2.315724,-0.34406 -2.794846,-0.51607 -2.156027,-0.68811 -2.635147,-0.17201 14.692909,2.58038 0.47912,-1.80626 0.15972,-1.63425 0.15972,-3.35449 0.0799,-1.03218 0.0799,-0.94613 -2.39559,-0.68811 -3.832927,-1.4622 -3.273967,-2.15028 -4.471754,-2.92444 z"
       id="path999" />
    <path
       style="fill:#02a2ee;fill-opacity:1;stroke:#000000;stroke-width:0.928206px;stroke-linecap:butt;stroke-linejoin:miter;stroke-opacity:1"
       d="m 131.71977,268.55211 0.0799,5.76283 -0.39927,3.61255 -0.15972,3.87057 -0.63882,2.0643 4.71132,1.63425 2.39558,1.89226 0.39926,3.18246 -1.3575,1.97833 -2.55529,0.86009 -3.0344,0.25802 -4.47175,-0.86009 -2.87471,-0.94617 -2.79484,-1.4622 -3.11424,-2.49437 -1.51721,-1.37623 -0.15972,-0.34405 2.95454,-0.51607 1.75676,-0.25802 2.31573,-0.34406 2.79484,-0.51607 2.15603,-0.68811 2.63515,-0.17201 -14.6929,2.58038 -0.47912,-1.80626 -0.15972,-1.63425 -0.15972,-3.35449 -0.0799,-1.03218 -0.0799,-0.94613 2.39559,-0.68811 3.83291,-1.4622 3.27397,-2.15028 4.47175,-2.92444 z"
       id="path1001" />
    <path
       style="opacity:1;fill:#000000;fill-opacity:1;stroke:#000000;stroke-width:0.808122;stroke-miterlimit:4;stroke-dasharray:none;stroke-opacity:1"
       d="m 128.40227,292.53118 c -2.57586,-0.55935 -4.23703,-1.1407 -5.87993,-2.05777 -1.66861,-0.93142 -5.26293,-3.73802 -4.90984,-3.83382 0.12794,-0.0347 3.04624,-0.5558 6.48511,-1.15797 l 6.25249,-1.09486 2.26574,0.81984 c 1.24616,0.45091 2.7767,1.18678 3.40121,1.63527 1.01976,0.73233 1.15205,0.95551 1.29826,2.19002 0.1351,1.14066 0.0644,1.51814 -0.41523,2.21818 -1.09067,1.59172 -4.61831,2.12354 -8.49781,1.28111 z"
       id="path1007" />
    <path
       style="opacity:1;fill:#000000;fill-opacity:1;stroke:#000000;stroke-width:0.808122;stroke-miterlimit:4;stroke-dasharray:none;stroke-opacity:1"
       d="m 78.07449,291.68363 c -1.757122,-0.64298 -2.439557,-1.72286 -2.198124,-3.47827 0.228854,-1.66398 1.230963,-2.49136 4.513939,-3.72689 l 2.41734,-0.90975 4.823436,0.85692 c 2.652889,0.4713 5.576382,0.99121 6.49665,1.15536 l 1.673215,0.29845 -2.002227,1.61311 c -1.101222,0.88721 -2.756204,1.99826 -3.677735,2.46901 -3.607678,1.84292 -9.43843,2.67643 -12.046494,1.72206 z"
       id="path1009" />
    <circle
       style="opacity:0.991;fill:#02a2ee;stroke:#000000;stroke-width:0.835;stroke-miterlimit:4;stroke-dasharray:none"
       id="path874"
       sodipodi:type="arc"
       sodipodi:cx="106.74227"
       sodipodi:cy="215.54045"
       sodipodi:rx="13.909478"
       sodipodi:ry="16.324265"
       sodipodi:start="0"
       sodipodi:end="3.134372"
       sodipodi:arc-type="slice"
       d="m 120.65175,215.54045 a 13.909478,16.324265 0 0 1 -13.85926,16.32416 13.909478,16.324265 0 0 1 -13.959334,-16.20629 l 13.909114,-0.11787 z" />
    <path
       style="fill:none;stroke:#000000;stroke-width:0.608118px;stroke-linecap:butt;stroke-linejoin:miter;stroke-opacity:1"
       d="m 103.93132,71.031067 3.77772,13.310856"
       id="path878" />
    <path
       style="fill:none;stroke:#000000;stroke-width:0.608118px;stroke-linecap:butt;stroke-linejoin:miter;stroke-opacity:1"
       d="m 105.54371,66.487492 2.16533,17.854431"
       id="path880" />
    <path
       style="fill:none;stroke:#000000;stroke-width:0.608118px;stroke-linecap:butt;stroke-linejoin:miter;stroke-opacity:1"
       d="m 109.36738,62.519832 -1.65834,21.822091"
       id="path882" />
    <path
       style="fill:none;stroke:#000000;stroke-width:0.608118px;stroke-linecap:butt;stroke-linejoin:miter;stroke-opacity:1"
       d="m 111.85516,68.279342 -4.14612,16.062581"
       id="path884" />
    <ellipse
       style="opacity:1;fill:#000000;fill-opacity:1;stroke:#000000;stroke-width:0.515076;stroke-miterlimit:4;stroke-dasharray:none;stroke-opacity:1"
       id="ellipse889"
       cx="89.486412"
       cy="199.23854"
       rx="1.938486"
       ry="2.0774853" />
  </g>
</svg>
